<svg width="220" height="220" viewBox="0 0 220 220" fill="none" xmlns="http://www.w3.org/2000/svg">
<g style="mix-blend-mode:multiply" opacity="0.3">
<path d="M139.517 60.042H52.984C50.4173 60.042 48.034 60.1337 45.834 60.2253C24.109 61.5087 18.334 69.4837 18.334 94.2337V99.5503C18.334 104.592 22.459 108.717 27.5007 108.717H165.001C170.042 108.717 174.167 104.592 174.167 99.5503V94.2337C174.167 66.917 167.201 60.042 139.517 60.042Z" fill="#BBC7CA"/>
<path d="M27.5007 122.468C22.459 122.468 18.334 126.593 18.334 131.634V158.309C18.334 185.626 25.3007 192.501 52.984 192.501H139.517C166.742 192.501 173.892 185.901 174.167 159.776V131.634C174.167 126.593 170.042 122.468 165.001 122.468H27.5007ZM63.8006 170.134H48.1256C44.3673 170.134 41.2506 167.018 41.2506 163.259C41.2506 159.501 44.3673 156.384 48.1256 156.384H63.8923C67.6506 156.384 70.7673 159.501 70.7673 163.259C70.7673 167.018 67.6506 170.134 63.8006 170.134ZM115.042 170.134H83.509C79.7506 170.134 76.634 167.018 76.634 163.259C76.634 159.501 79.7506 156.384 83.509 156.384H115.042C118.801 156.384 121.917 159.501 121.917 163.259C121.917 167.018 118.892 170.134 115.042 170.134Z" fill="#BBC7CA"/>
<path d="M201.663 122.193V74.1593C201.663 45.4676 185.255 33.001 160.505 33.001H78.6462C71.6795 33.001 65.4462 34.0093 59.9462 36.1176C55.6379 37.676 51.7879 39.9676 48.6712 42.9926C47.0212 44.551 48.3045 47.1176 50.6879 47.1176H150.33C170.955 47.1176 187.638 63.801 187.638 84.426V150.151C187.638 152.443 190.113 153.726 191.763 152.076C198.088 145.384 201.663 135.576 201.663 122.193Z" fill="#BBC7CA"/>
</g>
</svg>
