  <svg width="20" height="20" viewBox="0 0 20 20" fill="none" xmlns="http://www.w3.org/2000/svg">
            <path d="M6.70708 5.29304C6.51848 5.11088 6.26588 5.01009 6.00368 5.01237C5.74148 5.01465 5.49067 5.11981 5.30526 5.30522C5.11985 5.49063 5.01469 5.74144 5.01241 6.00364C5.01013 6.26584 5.11092 6.51844 5.29308 6.70704L8.58608 10L5.29308 13.293C5.19757 13.3853 5.12139 13.4956 5.06898 13.6176C5.01657 13.7396 4.98898 13.8709 4.98783 14.0036C4.98668 14.1364 5.01198 14.2681 5.06226 14.391C5.11254 14.5139 5.18679 14.6255 5.28069 14.7194C5.37458 14.8133 5.48623 14.8876 5.60913 14.9379C5.73202 14.9881 5.8637 15.0134 5.99648 15.0123C6.12926 15.0111 6.26048 14.9836 6.38249 14.9311C6.50449 14.8787 6.61483 14.8026 6.70708 14.707L10.0001 11.414L13.2931 14.707C13.4817 14.8892 13.7343 14.99 13.9965 14.9877C14.2587 14.9854 14.5095 14.8803 14.6949 14.6949C14.8803 14.5095 14.9855 14.2586 14.9878 13.9964C14.99 13.7342 14.8892 13.4816 14.7071 13.293L11.4141 10L14.7071 6.70704C14.8892 6.51844 14.99 6.26584 14.9878 6.00364C14.9855 5.74144 14.8803 5.49063 14.6949 5.30522C14.5095 5.11981 14.2587 5.01465 13.9965 5.01237C13.7343 5.01009 13.4817 5.11088 13.2931 5.29304L10.0001 8.58604L6.70708 5.29304Z" fill="#142739" />
        </svg>