<svg width="18" height="17" viewBox="0 0 18 17" fill="none" xmlns="http://www.w3.org/2000/svg">
	<path fillRule="evenodd" clipRule="evenodd" d="M16.23 0.1875C16.48 -0.0625 16.8883 -0.0625 17.1383 0.1875C17.3966 0.4375 17.3966 0.8375 17.1383 1.0875L1.75498 16.4708C1.62998 16.5958 1.47165 16.6625 1.30498 16.6625C1.13831 16.6625 0.97998 16.5958 0.85498 16.4792C0.60498 16.2292 0.60498 15.8208 0.85498 15.5708L3.30456 13.1199C2.5664 12.4428 1.88503 11.6286 1.28833 10.6958C0.454997 9.3875 0.454997 7.2625 1.28833 5.95417C2.255 4.4375 3.43833 3.24583 4.755 2.42917C6.07166 1.62917 7.51333 1.1875 8.99666 1.1875C10.6517 1.1875 12.2606 1.72953 13.6877 2.73117L16.23 0.1875ZM10.8859 5.53451C10.348 5.16969 9.69825 4.9625 8.99666 4.9625C7.13 4.9625 5.63 6.47083 5.63 8.32917C5.63 9.0305 5.84174 9.68008 6.20512 10.2178L6.92522 9.4973C6.72857 9.15003 6.61328 8.75012 6.61328 8.32926C6.61328 7.02092 7.67995 5.94592 8.99661 5.94592C9.41703 5.94592 9.81653 6.06097 10.1635 6.25723L10.8859 5.53451ZM16.7216 5.97927C16.48 5.59593 16.2216 5.2376 15.955 4.90427C15.6466 4.5126 15.0633 4.47927 14.7133 4.82927L12.2133 7.32927C12.3966 7.87927 12.43 8.5126 12.2633 9.17093C11.9716 10.3459 11.0216 11.2959 9.84662 11.5876C9.18829 11.7543 8.55495 11.7209 8.00495 11.5376L5.95495 13.5876C5.53829 14.0043 5.67162 14.7376 6.22995 14.9543C7.12162 15.2959 8.04662 15.4709 8.99662 15.4709C10.48 15.4709 11.9216 15.0376 13.2383 14.2293C14.58 13.3959 15.7883 12.1709 16.7633 10.6126C17.555 9.35427 17.5133 7.2376 16.7216 5.97927ZM11.38 8.32917C11.38 9.6375 10.3133 10.7125 8.99665 10.7125C8.94665 10.7125 8.90498 10.7125 8.85498 10.6958L11.3633 8.1875C11.38 8.2375 11.38 8.27917 11.38 8.32917Z" fill="#142739" />
</svg>
