<svg width="18" height="16" viewBox="0 0 18 16" fill="none" xmlns="http://www.w3.org/2000/svg">
	<path fillRule="evenodd" clipRule="evenodd" d="M9.00008 0.862549C11.9667 0.862549 14.7834 2.60421 16.7084 5.62922C17.5417 6.93755 17.5417 9.07088 16.7084 10.3709C15.7417 11.8875 14.5584 13.0792 13.2417 13.8959C11.9251 14.7042 10.4834 15.1375 9.00008 15.1375C6.03341 15.1375 3.21675 13.4042 1.29175 10.3709C0.458415 9.06255 0.458415 6.93755 1.29175 5.62922C2.25841 4.11255 3.44175 2.92088 4.75841 2.10422C6.07508 1.29588 7.51675 0.862549 9.00008 0.862549ZM5.63341 8.00422C5.63341 9.86255 7.13342 11.3709 9.00008 11.3709C10.8667 11.3709 12.3667 9.86255 12.3667 8.00422C12.3667 6.14588 10.8667 4.63755 9.00008 4.63755C7.13342 4.63755 5.63341 6.14588 5.63341 8.00422ZM6.625 8.0043C6.625 6.68764 7.69167 5.62097 9 5.62097C10.3083 5.62097 11.3833 6.69597 11.3833 8.0043C11.3833 9.31264 10.3083 10.3793 9 10.3793C7.69167 10.3793 6.625 9.31264 6.625 8.0043Z" fill="#142739" />
</svg>
