<svg width="125" height="28" viewBox="0 0 125 28" fill="none" xmlns="http://www.w3.org/2000/svg">
<g opacity="0.5" filter="url(#filter0_d_596_2559)">
<rect x="2.19141" y="1.76855" width="120.808" height="23.0812" rx="2.45545" fill="#0E343D" fill-opacity="0.2" shape-rendering="crispEdges"/>
<g clip-path="url(#clip0_596_2559)">
<path d="M13.7578 8.3418L14.9494 10.9283H14.4719L14.1779 10.2966L12.7815 10.3005L12.4952 10.9342L12.0137 10.9362L13.1931 8.34208L13.7578 8.3418ZM13.9753 9.85716L13.4751 8.7748L12.9811 9.86053L13.9753 9.85716Z" fill="#0C3743"/>
<path d="M19.8679 9.99087L20.6636 10.9099H20.0983L19.3029 9.99143L18.4301 9.99396L18.4333 10.915H17.9511L17.9434 8.32482L20.0336 8.31836C20.1684 8.31814 20.2979 8.37016 20.3934 8.46298C20.4889 8.55581 20.5428 8.68184 20.5431 8.81338L20.5457 9.48687C20.5463 9.5523 20.5336 9.61721 20.5085 9.67786C20.4833 9.73851 20.4461 9.79371 20.399 9.84031C20.3519 9.8869 20.2958 9.92396 20.234 9.94936C20.1722 9.97477 20.1059 9.98802 20.0388 9.98835L19.8679 9.99087ZM19.9542 9.54637C19.9838 9.54645 20.0122 9.53526 20.0334 9.51518C20.0547 9.4951 20.067 9.46772 20.0678 9.43889L20.0658 8.87231C20.0652 8.84293 20.0528 8.81495 20.0313 8.79438C20.0098 8.77382 19.9809 8.7623 19.9508 8.76231L18.4261 8.7668L18.4287 9.55114L19.9542 9.54637Z" fill="#0C3743"/>
<path d="M26.5619 8.29883L26.5697 10.889H26.0875L26.0824 9.08682L25.3646 10.1479H24.883L24.1638 9.09131L24.169 10.8935H23.6875L23.6797 8.38863V8.30444H24.1613H24.1877L25.1255 9.66742L26.0542 8.29883H26.0806H26.5619Z" fill="#0C3743"/>
<path d="M31.2199 8.28279L32.4112 10.8698H31.9337L31.6397 10.2382L30.2439 10.2421L29.9562 10.8757H29.4746L30.6541 8.28223L31.2199 8.28279ZM31.4374 9.79815L30.9372 8.71495L30.4432 9.80124L31.4374 9.79815Z" fill="#0C3743"/>
<path d="M37.5814 8.26172H38.0598L38.0676 10.8519H37.59L35.9445 8.98096L35.9503 10.8566L35.4687 10.8586L35.4609 8.26845L35.9425 8.26649L37.5872 10.1371L37.5814 8.26172Z" fill="#0C3743"/>
<path d="M43.7453 9.79665V10.322C43.7455 10.3871 43.7325 10.4516 43.7072 10.5118C43.6818 10.572 43.6445 10.6268 43.5974 10.6729C43.5504 10.7191 43.4944 10.7557 43.4328 10.7808C43.3712 10.8058 43.3052 10.8188 43.2384 10.819L41.4548 10.824V10.384L43.1498 10.3789C43.1651 10.3794 43.1802 10.3768 43.1944 10.3713C43.2085 10.3658 43.2214 10.3575 43.2322 10.347C43.2429 10.3365 43.2514 10.324 43.257 10.3101C43.2627 10.2963 43.2653 10.2815 43.2649 10.2667V9.85277C43.2647 9.83833 43.2616 9.82407 43.2557 9.81083C43.2497 9.79758 43.2412 9.78563 43.2304 9.77567C43.2197 9.76571 43.2071 9.75794 43.1932 9.75282C43.1794 9.7477 43.1646 9.74533 43.1498 9.74585L41.9358 9.74894C41.801 9.74931 41.6715 9.69744 41.5759 9.60472C41.4802 9.512 41.4262 9.38602 41.4258 9.25448V8.72916C41.4255 8.66402 41.4384 8.59947 41.4637 8.5392C41.489 8.47894 41.5263 8.42415 41.5734 8.37797C41.6205 8.3318 41.6765 8.29515 41.7381 8.27013C41.7998 8.24511 41.8659 8.23221 41.9327 8.23218L43.6849 8.22656V8.66714L42.0164 8.67219C42.0017 8.67234 41.9872 8.67533 41.9737 8.681C41.9602 8.68667 41.948 8.6949 41.9378 8.70522C41.9276 8.71554 41.9196 8.72773 41.9143 8.74109C41.9089 8.75445 41.9064 8.76871 41.9068 8.78304V9.1978C41.9069 9.22621 41.9186 9.2534 41.9393 9.27343C41.9599 9.29347 41.9878 9.30472 42.017 9.30472L43.235 9.30079C43.3019 9.30064 43.3681 9.31335 43.43 9.33819C43.4918 9.36304 43.5481 9.39952 43.5955 9.44557C43.6429 9.49162 43.6805 9.54633 43.7062 9.60657C43.7319 9.66681 43.7452 9.7314 43.7453 9.79665Z" fill="#0C3743"/>
<path d="M48.6755 9.83252L48.6528 9.86535L48.6554 10.8015L48.1738 10.8035L48.1712 9.86732L48.1517 9.83364L47.1074 8.21557H47.631L48.4123 9.42225L49.1824 8.20996H49.7054L48.6755 9.83252Z" fill="#0C3743"/>
<path d="M55.3869 9.76037V10.2857C55.3871 10.3508 55.3742 10.4154 55.3488 10.4756C55.3234 10.5359 55.2862 10.5907 55.2391 10.6369C55.192 10.6831 55.1361 10.7198 55.0745 10.7449C55.0128 10.77 54.9468 10.7831 54.88 10.7832L53.0964 10.7883V10.3477L54.7919 10.3427C54.8069 10.343 54.8218 10.3403 54.8357 10.3348C54.8496 10.3294 54.8622 10.3212 54.8728 10.3108C54.8834 10.3005 54.8917 10.2881 54.8972 10.2746C54.9027 10.261 54.9054 10.2464 54.905 10.2318V9.81734C54.9047 9.80293 54.9015 9.78872 54.8955 9.77553C54.8896 9.76234 54.881 9.75043 54.8703 9.74049C54.8596 9.73055 54.847 9.72278 54.8332 9.71761C54.8194 9.71245 54.8047 9.71001 54.7899 9.71042L53.5759 9.7135C53.5092 9.7138 53.4431 9.70126 53.3814 9.6766C53.3197 9.65194 53.2636 9.61564 53.2162 9.56979C53.1689 9.52394 53.1313 9.46943 53.1056 9.40939C53.0799 9.34935 53.0666 9.28495 53.0665 9.21989L53.0645 8.694C53.0643 8.6289 53.0772 8.5644 53.1026 8.50418C53.128 8.44396 53.1653 8.38922 53.2123 8.34306C53.2594 8.29691 53.3153 8.26026 53.3769 8.2352C53.4385 8.21014 53.5046 8.19717 53.5713 8.19702L55.3241 8.19141V8.63198L53.6556 8.63704C53.6408 8.63714 53.6261 8.64015 53.6125 8.64589C53.5989 8.65164 53.5866 8.66 53.5764 8.67047C53.5662 8.68095 53.5582 8.69332 53.553 8.70686C53.5478 8.7204 53.5454 8.73483 53.546 8.74928V9.1632C53.546 9.19171 53.5576 9.21905 53.5783 9.2392C53.599 9.25936 53.627 9.27068 53.6562 9.27068L54.8736 9.26675C54.9406 9.26616 55.007 9.27847 55.0691 9.30298C55.1312 9.32749 55.1877 9.36372 55.2354 9.40958C55.283 9.45544 55.321 9.51004 55.347 9.57024C55.373 9.63044 55.3865 9.69505 55.3869 9.76037Z" fill="#0C3743"/>
<path d="M58.8595 8.18084L61.234 8.17383V8.61441L60.2847 8.61693L60.2913 10.7665H59.8097L59.8026 8.61693L58.8584 8.61946L58.8595 8.18084Z" fill="#0C3743"/>
<path d="M65.2964 8.16033L66.9362 8.15527V8.59585L65.3807 8.60034C65.3659 8.60052 65.3513 8.60358 65.3377 8.60935C65.3241 8.61513 65.3119 8.62349 65.3017 8.63394C65.2915 8.6444 65.2835 8.65675 65.2782 8.67026C65.273 8.68376 65.2706 8.69816 65.2711 8.71259L65.2731 9.23427L66.7115 9.22978V9.67428L65.2731 9.67821V10.2005C65.2729 10.2148 65.2756 10.2291 65.2811 10.2424C65.2866 10.2558 65.2947 10.2679 65.305 10.2781C65.3154 10.2884 65.3277 10.2965 65.3413 10.3021C65.3549 10.3076 65.3694 10.3105 65.3842 10.3105L66.9376 10.306V10.7465L65.2979 10.751C65.2311 10.7513 65.165 10.7388 65.1032 10.7141C65.0415 10.6895 64.9853 10.6532 64.938 10.6074C64.8906 10.5615 64.8529 10.507 64.8272 10.447C64.8014 10.3869 64.788 10.3225 64.7878 10.2574L64.7832 8.65787C64.7829 8.59218 64.7959 8.52707 64.8216 8.46635C64.8473 8.40563 64.8852 8.35051 64.9329 8.3042C64.9807 8.25789 65.0375 8.22132 65.0999 8.19662C65.1623 8.17192 65.2291 8.15958 65.2964 8.16033Z" fill="#0C3743"/>
<path d="M73.1261 8.13505L73.1338 10.7252H72.6523L72.6462 8.9236L71.9285 9.98379H71.4469L70.7277 8.92724L70.7335 10.7294H70.2513L70.2441 8.22456V8.14038H70.7263H70.753L71.69 9.50336L72.6192 8.13477H72.6459L73.1261 8.13505Z" fill="#0C3743"/>
<path d="M15.596 15.0689L16.4214 15.0664L16.4349 19.505L15.6096 19.5075L15.6044 17.6686L12.8479 17.6762L12.8536 19.5151L12.0283 19.5176L12.0156 15.079L12.841 15.0765L12.8467 16.9154L15.6027 16.9079L15.596 15.0689Z" fill="#0C3743"/>
<path d="M24.0979 15.04L26.1404 19.4722L25.3214 19.4747L24.8171 18.3924L22.4251 18.3994L21.9346 19.4851L21.1084 19.4876L23.1296 15.0426L24.0979 15.04ZM24.4699 17.6386L23.6132 15.7834L22.7671 17.6439L24.4699 17.6386Z" fill="#0C3743"/>
<path d="M35.486 15.002L35.4995 19.44L34.6742 19.4425L34.6644 16.3557L33.4357 18.1713L32.6095 18.1738L31.376 16.3641L31.3852 19.4509L30.5598 19.4535L30.5469 15.1599V15.0143L31.3722 15.0123H31.4182L33.0243 17.3468L34.6152 15.0039H34.6606L35.486 15.002Z" fill="#0C3743"/>
<path d="M42.8956 14.9541L44.9381 19.3879L44.1191 19.3899L43.6156 18.3075L41.223 18.3146L40.7326 19.4003L39.9072 19.4028L41.9261 14.9575L42.8956 14.9541ZM43.2673 17.5527L42.4106 15.6972L41.5645 17.5577L43.2673 17.5527Z" fill="#0C3743"/>
<path d="M49.9785 14.931L53.6579 14.9209L53.6605 15.6749L50.8065 15.6839L50.8096 16.7682L53.2736 16.7607L53.2756 17.5214L50.8122 17.529L50.818 19.3679L49.9918 19.3699L49.9785 14.931Z" fill="#0C3743"/>
<path d="M60.4312 18.584L63.1877 18.5759L63.1897 19.3305L59.2198 19.3426L59.2178 18.7272L62.0099 15.6501L59.3058 15.6577L59.3032 14.9037L63.2225 14.8916L63.2245 15.507L60.4312 18.584Z" fill="#0C3743"/>
<path d="M71.0912 14.8662L73.1337 19.3001L72.3147 19.3026L71.8104 18.2194L69.4187 18.2264L68.9279 19.3118L68.1025 19.3138L70.1232 14.8696L71.0912 14.8662ZM71.4638 17.4653L70.6065 15.6101L69.7601 17.4707L71.4638 17.4653Z" fill="#0C3743"/>
<path d="M104.359 14.4459H110.573C110.915 14.4462 111.254 14.3807 111.571 14.2531C111.887 14.1254 112.174 13.9382 112.416 13.7022C112.658 13.4661 112.85 13.1858 112.981 12.8773C113.112 12.5688 113.179 12.2382 113.179 11.9043V9.21428C113.178 8.881 113.11 8.55108 112.979 8.24336C112.848 7.93564 112.656 7.65615 112.414 7.42084C112.172 7.18553 111.885 6.99901 111.569 6.87194C111.253 6.74487 110.915 6.67974 110.573 6.68025H103.792H101.327V12.1723H101.175L98.6654 6.68025H95.7691L93.252 12.1723H93.0932V6.67969H90.6272H83.4333C83.0917 6.67921 82.7533 6.74437 82.4375 6.87146C82.1217 6.99855 81.8346 7.18507 81.5927 7.42038C81.3508 7.65568 81.1588 7.93516 81.0276 8.24287C80.8964 8.55057 80.8286 8.88046 80.8281 9.21372V11.904C80.8278 12.2379 80.895 12.5685 81.0258 12.877C81.1566 13.1854 81.3485 13.4657 81.5905 13.7018C81.8324 13.9379 82.1198 14.1251 82.436 14.2527C82.7522 14.3803 83.0911 14.4459 83.4333 14.4456H89.6471C89.7222 14.4437 89.797 14.4563 89.8671 14.4827C89.9372 14.5091 90.0012 14.5489 90.0554 14.5996C90.1096 14.6504 90.153 14.7111 90.1829 14.7783C90.2129 14.8455 90.2289 14.9179 90.2299 14.9912V17.1144C90.2312 17.1893 90.217 17.2638 90.1882 17.3333C90.1593 17.4028 90.1164 17.4659 90.062 17.5189C90.0077 17.5719 89.9429 17.6136 89.8716 17.6417C89.8003 17.6697 89.724 17.6834 89.6471 17.6821H80.9659V18.1454L81.2801 18.8259L81.7706 19.9394H93.0929L95.1403 14.4462H99.2791L101.327 19.9391H112.236L112.725 18.8256L113.039 18.1451V17.6821H104.359C104.227 17.6844 104.099 17.6419 103.995 17.5619C103.892 17.4819 103.82 17.3693 103.792 17.2435V14.8694C103.824 14.7466 103.897 14.6378 104 14.5608C104.103 14.4839 104.23 14.4434 104.359 14.4459ZM110.144 8.93001C110.219 8.93028 110.294 8.94527 110.364 8.97408C110.433 9.00289 110.497 9.04495 110.549 9.09781C110.602 9.15066 110.644 9.21325 110.671 9.28191C110.699 9.35057 110.712 9.42393 110.711 9.4977V11.6209C110.711 11.6935 110.696 11.7655 110.668 11.8326C110.639 11.8997 110.598 11.9607 110.545 12.0121C110.492 12.0634 110.43 12.1041 110.361 12.1318C110.292 12.1595 110.218 12.1736 110.144 12.1734H103.916C103.875 12.1734 103.834 12.1734 103.793 12.1765V8.93001H110.144ZM90.091 12.1734H83.8622C83.7878 12.1736 83.714 12.1595 83.6452 12.1318C83.5763 12.1041 83.5138 12.0634 83.4611 12.0121C83.4084 11.9607 83.3666 11.8997 83.3382 11.8326C83.3097 11.7655 83.2951 11.6935 83.2952 11.6209V9.4977C83.2935 9.42393 83.307 9.35057 83.3347 9.28191C83.3624 9.21325 83.4038 9.15066 83.4566 9.09781C83.5094 9.04495 83.5725 9.00289 83.6421 8.97408C83.7118 8.94527 83.7866 8.93028 83.8622 8.93001H90.6272V12.2273C90.4508 12.1917 90.2712 12.1736 90.091 12.1734ZM95.9883 12.1734L97.211 8.8938L98.4327 12.1734H95.9883Z" fill="#0C3743"/>
</g>
</g>
<defs>
<filter id="filter0_d_596_2559" x="0.227046" y="0.786375" width="124.737" height="27.0098" filterUnits="userSpaceOnUse" color-interpolation-filters="sRGB">
<feFlood flood-opacity="0" result="BackgroundImageFix"/>
<feColorMatrix in="SourceAlpha" type="matrix" values="0 0 0 0 0 0 0 0 0 0 0 0 0 0 0 0 0 0 127 0" result="hardAlpha"/>
<feOffset dy="0.98218"/>
<feGaussianBlur stdDeviation="0.98218"/>
<feComposite in2="hardAlpha" operator="out"/>
<feColorMatrix type="matrix" values="0 0 0 0 0.054902 0 0 0 0 0.203922 0 0 0 0 0.239216 0 0 0 0.1 0"/>
<feBlend mode="normal" in2="BackgroundImageFix" result="effect1_dropShadow_596_2559"/>
<feBlend mode="normal" in="SourceGraphic" in2="effect1_dropShadow_596_2559" result="shape"/>
</filter>
<clipPath id="clip0_596_2559">
<rect width="101.165" height="13.2594" fill="white" transform="translate(12.0137 6.67969)"/>
</clipPath>
</defs>
</svg>
