<svg width="84" height="63" viewBox="0 0 84 63" fill="none" xmlns="http://www.w3.org/2000/svg">
<path d="M21.396 36.657C21.1398 36.6731 20.9983 36.352 21.1921 36.1649L21.2113 36.0876C21.2088 36.0814 21.2062 36.0752 21.2037 36.069C20.9446 35.4458 20.0667 35.4501 19.8099 36.0742C19.582 36.6282 19.2917 37.1831 19.2203 37.7688C19.1882 38.0274 19.2026 38.2908 19.2595 38.5445C18.7254 37.3673 18.4443 36.0817 18.4443 34.7889C18.4443 34.4641 18.4619 34.1392 18.4979 33.8152C18.5276 33.5502 18.5684 33.2868 18.6213 33.0258C18.9071 31.615 19.5262 30.2713 20.4191 29.1489C20.8483 28.9122 21.2063 28.5421 21.4225 28.0985C21.5002 27.9385 21.561 27.7664 21.5898 27.5911C21.541 27.5975 21.4057 26.8469 21.4425 26.8008C21.3744 26.6966 21.2526 26.6448 21.1782 26.5431C20.8085 26.0372 20.299 26.1255 20.0331 26.8129C19.4649 27.1023 19.4594 27.5821 19.808 28.0435C20.0298 28.3371 20.0603 28.7344 20.2549 29.0487C20.2349 29.0746 20.2141 29.0996 20.194 29.1255C19.8269 29.6006 19.5094 30.1113 19.2417 30.6478C19.3174 30.0515 19.2057 29.3332 19.0153 28.8702C18.7985 28.3426 18.3922 27.8982 18.0345 27.4421C17.6047 26.8943 16.7235 27.1334 16.6478 27.8278C16.6471 27.8346 16.6464 27.8413 16.6457 27.848C16.6988 27.8783 16.7509 27.9104 16.8017 27.9443C17.0918 28.1379 16.9915 28.5916 16.6479 28.6451L16.6401 28.6463C16.6593 28.8394 16.6921 29.0309 16.7402 29.2192C16.2812 31.0101 17.2721 31.6624 18.6869 31.6917C18.7182 31.7079 18.7486 31.7241 18.7798 31.7394C18.6365 32.1467 18.522 32.5644 18.4371 32.9878C18.361 33.3619 18.3081 33.7401 18.2785 34.1198C18.2417 34.599 18.2449 35.0806 18.2849 35.5589L18.2825 35.5419C18.1808 35.0151 17.8973 34.523 17.4857 34.182C16.8725 33.6738 16.0062 33.4866 15.3447 33.0781C15.0263 32.8815 14.6182 33.1356 14.6738 33.5081L14.6765 33.5259C14.775 33.5663 14.8711 33.6132 14.964 33.6657C15.0171 33.696 15.0692 33.7281 15.12 33.762C15.4101 33.9556 15.3099 34.4093 14.9662 34.4628L14.9584 34.464C14.9528 34.4649 14.948 34.4657 14.9424 34.4665C15.1113 34.8713 15.3468 35.247 15.6415 35.571C15.9284 37.1345 17.161 37.2828 18.4795 36.8275H18.4803C18.6245 37.461 18.8351 38.0799 19.1058 38.6698H21.34C21.348 38.6447 21.3552 38.6189 21.3624 38.5938C21.1558 38.6068 20.9476 38.5946 20.7442 38.5567C20.91 38.3514 21.0757 38.1446 21.2415 37.9393C21.2455 37.9353 21.2487 37.9313 21.2519 37.9272C21.336 37.8222 21.4209 37.7179 21.505 37.6129L21.505 37.6128C21.5103 37.2903 21.472 36.9689 21.396 36.657L21.396 36.657L21.396 36.657V36.657Z" fill="#F5F5F5"/>
<path d="M74.3896 33.3466C73.7123 33.3894 73.3379 32.5403 73.8504 32.0453L73.9014 31.8408C73.8946 31.8244 73.8879 31.8081 73.8811 31.7917C73.1961 30.1435 70.8744 30.1549 70.1952 31.8055C69.5923 33.2705 68.8248 34.7381 68.6358 36.2871C68.5511 36.9709 68.5892 37.6675 68.7396 38.3385C67.327 35.2251 66.5837 31.8253 66.5837 28.4064C66.5837 27.5473 66.6303 26.6883 66.7256 25.8315C66.8039 25.1306 66.9119 24.434 67.0517 23.7437C67.8078 20.0128 69.4448 16.4592 71.8061 13.4911C72.9413 12.865 73.8879 11.8863 74.4597 10.7132C74.6651 10.2901 74.8261 9.83493 74.9023 9.37124C74.7732 9.38833 74.4152 7.40317 74.5127 7.28138C74.3326 7.00573 74.0104 6.8687 73.8138 6.59973C72.8359 5.26201 71.4887 5.49559 70.7854 7.31344C69.2829 8.07856 69.2684 9.34748 70.1903 10.5679C70.7768 11.3443 70.8574 12.3949 71.372 13.2261C71.319 13.2945 71.264 13.3607 71.211 13.4291C70.2401 14.6856 69.4004 16.0362 68.6925 17.455C68.8926 15.8781 68.5972 13.9784 68.0937 12.7539C67.5204 11.3586 66.446 10.1835 65.4999 8.97732C64.3635 7.52849 62.033 8.16079 61.8328 9.99741C61.8309 10.0152 61.829 10.033 61.8271 10.0507C61.9677 10.1307 62.1053 10.2157 62.2398 10.3055C63.0069 10.8174 62.7418 12.0172 61.8329 12.1587L61.8123 12.1619C61.8632 12.6727 61.95 13.1791 62.077 13.677C60.8633 18.4132 63.4837 20.1383 67.2254 20.2158C67.308 20.2585 67.3884 20.3012 67.471 20.3419C67.092 21.4188 66.7891 22.5236 66.5646 23.6433C66.3634 24.6327 66.2237 25.6327 66.1453 26.637C66.0479 27.9042 66.0564 29.1777 66.1623 30.4428L66.1559 30.3979C65.887 29.0047 65.1372 27.7033 64.0487 26.8016C62.4271 25.4575 60.1361 24.9625 58.3867 23.8821C57.5445 23.3621 56.4654 24.0341 56.6124 25.0193L56.6195 25.0664C56.88 25.1733 57.1341 25.2972 57.3798 25.4361C57.5203 25.5161 57.658 25.6011 57.7925 25.6908C58.5596 26.2027 58.2945 27.4026 57.3856 27.5441L57.365 27.5473C57.3502 27.5495 57.3374 27.5516 57.3226 27.5538C57.7695 28.6243 58.3921 29.6179 59.1714 30.4748C59.9304 34.6094 63.1901 35.0017 66.6769 33.7976H66.679C67.0602 35.473 67.6172 37.1098 68.333 38.6697H74.2416C74.2628 38.6034 74.2818 38.535 74.3009 38.4688C73.7545 38.503 73.2039 38.4709 72.666 38.3705C73.1043 37.8278 73.5427 37.2807 73.9811 36.738C73.9917 36.7273 74.0002 36.7166 74.0086 36.7059C74.231 36.4281 74.4555 36.1525 74.6778 35.8747L74.678 35.8743C74.6919 35.0216 74.5906 34.1716 74.3898 33.3468L74.3897 33.3467L74.3896 33.3466H74.3896Z" fill="#F5F5F5"/>
<path d="M2.81322 3.35864H53.0037V3.60885H19.55C17.1732 3.60885 14.8981 4.0417 12.7953 4.83485H12.794C12.5051 4.94368 12.2212 5.05878 11.9398 5.18138C11.2901 5.46161 10.6602 5.77811 10.0502 6.12715C9.67084 6.34358 9.29889 6.57377 8.93686 6.81521C8.16319 7.32938 7.42919 7.89859 6.73983 8.51785L6.73859 8.5191C6.7076 8.54538 6.67784 8.57164 6.64809 8.60041C2.71899 12.1646 0.247968 17.3338 0.247968 23.0847V37.175C0.247968 37.205 0.247966 37.235 0.249207 37.265C0.28392 38.2984 0.918727 39.1603 1.76183 38.9439C3.19882 38.5736 4.65813 38.3021 6.14099 38.3021H75.1735C78.045 38.3021 80.9636 38.5786 83.6305 39.6545C83.7198 39.6908 83.8029 39.6683 83.8847 39.642C83.9231 39.6295 83.9616 39.617 84 39.602V39.8659C83.7198 39.961 83.421 40.0135 83.1085 40.0135H2.81322C1.2944 40.0135 0.052065 38.7913 0.00247584 37.2713C-6.34968e-06 37.2388 -3.78944e-06 37.2075 -3.78944e-06 37.175V6.19721C-3.78944e-06 4.63218 1.26216 3.35864 2.81322 3.35864Z" fill="#F5F5F5"/>
<path d="M51.6203 60.0598L53.5028 60.3458L55.4922 53.1553L52.7137 52.7332L51.6203 60.0598Z" fill="#F5F5F5"/>
<path d="M51.2582 62.0313L57.0472 62.911L57.0583 62.8372C57.2456 61.5816 56.3888 60.4104 55.1445 60.2212L55.1443 60.2212L54.2077 59.251L52.1139 59.7607L51.6086 59.6839L51.2582 62.0313H51.2582Z" fill="#142739"/>
<path d="M35.9737 58.5274L37.6805 59.3784L41.7461 53.1411L39.2271 51.885L35.9737 58.5274Z" fill="#F5F5F5"/>
<path d="M35.0333 60.2937L40.2816 62.911L40.3144 62.844C40.872 61.7057 40.4094 60.3268 39.2813 59.7641L39.2812 59.764L38.682 58.5521L36.5338 58.394L36.0757 58.1655L35.0333 60.2937L35.0333 60.2937Z" fill="#142739"/>
<path d="M31.9441 38.8217L31.9128 27.056L29.1356 26.3142L29.9425 38.7727C29.7136 38.9564 29.5327 39.2063 29.4339 39.5074C29.1632 40.3319 29.6062 41.2217 30.4234 41.4949C31.2406 41.768 32.1225 41.321 32.3932 40.4965C32.5957 39.8795 32.3985 39.226 31.9441 38.8217V38.8217Z" fill="#E5E0DA"/>
<path d="M49.6667 35.7218L49.1565 23.9674L46.3515 23.3413L47.6648 35.7559C47.4436 35.9489 47.273 36.2061 47.1865 36.511C46.9496 37.346 47.4285 38.2168 48.2561 38.4558C49.0837 38.6948 49.9467 38.2117 50.1836 37.3766C50.3608 36.7517 50.1372 36.107 49.6667 35.7218V35.7218Z" fill="#E5E0DA"/>
<path d="M41.9205 39.9368L49.1528 42.3314L53.3892 43.7336C51.6114 46.8763 51.7682 56.5462 51.9064 57.3491H55.6067C55.6425 56.6276 58.263 47.1919 59.0386 42.9181C60.0478 37.3565 55.3122 35.9465 55.3122 35.9465L48.4719 33.1986L44.1835 32.1082L40.7948 31.2466C40.6411 31.5395 40.5075 31.8255 40.3919 32.1051C40.3911 32.1059 40.3911 32.1075 40.3903 32.1082C38.3392 37.0643 41.9205 39.9368 41.9205 39.9368Z" fill="#142739"/>
<path d="M32.4877 35.4813C32.5918 37.091 33.2563 38.1806 33.2563 38.1806L42.7578 45.6911C40.8504 47.3283 36.2505 55.4026 35.8444 56.4734L39.9843 57.0989C40.4385 56.2506 47.6347 48.0928 48.3451 46.8654C49.2658 45.2744 49.3955 43.7133 49.1525 42.3315C48.6502 39.4716 46.5487 37.3777 46.5487 37.3777L41.3364 32.5509L40.3986 32.1083L40.3916 32.1052L35.1304 29.6228C34.2221 30.4547 33.6026 31.2952 33.1911 32.1083C32.7369 33.006 32.5374 33.87 32.4877 34.6502C32.4691 34.94 32.4707 35.2173 32.4877 35.4813H32.4877Z" fill="#142739"/>
<path d="M37.1455 10.4885L42.3469 10.3318L43.8996 12.2118C45.3927 12.3871 46.7054 12.9712 47.7812 14.0917C47.7812 14.0917 46.9266 16.3992 47.1602 21.2983C47.282 23.8525 46.7066 28.5566 46.772 30.3849C46.8303 32.0133 46.5872 32.7397 46.5391 32.7349C46.3337 32.7142 45.3746 32.1866 43.4338 32.8132C41.493 33.4399 32.9987 32.1002 32.9987 32.1002L33.5744 28.3483L32.8566 25.992L32.5651 13.4651C34.1954 12.7601 35.0494 12.5251 36.6021 12.5251L37.1455 10.4885V10.4885Z" fill="#134E5E"/>
<path d="M34.1722 14.4342L32.6422 13.4654C32.6422 13.4654 29.8474 12.9954 30.0803 18.4003C30.0803 18.4003 28.5489 22.2941 28.642 25.6896C28.6478 25.9 28.8565 26.2117 28.6788 26.3142C28.3014 26.5318 28.4806 26.738 28.7605 26.9386L32.2702 27.7285C32.5832 27.4311 32.7425 27.1531 32.4902 26.9271C32.7743 26.8233 32.8464 26.6797 32.6132 26.4789C32.7432 26.4543 32.8029 26.3752 32.6983 26.1688L34.4277 22.4736L34.1722 14.4342V14.4342Z" fill="#134E5E"/>
<path d="M46.0207 14.7926L47.6747 14.0598C47.6747 14.0598 50.5075 14.0071 49.4942 19.3196C49.4942 19.3196 50.3467 22.9757 49.9416 26.2042C49.9326 26.2757 49.8671 26.363 49.9128 26.4179C50.067 26.6033 50.0856 26.7863 49.8198 26.9653C49.7276 27.0274 49.6954 27.1952 49.7495 27.2914C49.9236 27.6013 49.8006 27.8032 49.563 27.9608L45.4273 29.4074L44.3318 20.6748L46.0207 14.7926Z" fill="#134E5E"/>
<path d="M40.2689 9.9271C37.8394 9.9271 35.8699 7.93985 35.8699 5.48845C35.8699 3.03705 37.8394 1.0498 40.2689 1.0498C42.6985 1.0498 44.668 3.03705 44.668 5.48845C44.668 7.93985 42.6985 9.9271 40.2689 9.9271Z" fill="#E5E0DA"/>
<path d="M36.1447 8.45249C36.1979 8.55318 36.3534 8.68903 36.563 8.83965C36.8014 9.01082 37.1091 9.20036 37.4145 9.38144C37.4145 9.38144 38.521 9.26057 38.0855 8.66927C38.0367 8.60367 37.991 8.53072 37.9495 8.45403C37.7975 8.17059 37.7234 7.83822 37.916 7.60169C38.0587 7.42707 38.3287 7.37531 38.5248 7.48558C38.7205 7.59466 38.6483 7.59399 38.7236 7.57304C38.9071 7.35979 39.2042 7.45882 39.2042 7.45882C39.2042 7.45882 38.9739 6.93114 38.7917 6.70671C38.6083 6.48261 38.4198 6.23526 38.4012 5.94587C38.382 5.66832 38.5217 5.40757 38.6564 5.16636C38.8024 4.90515 38.9476 4.64548 39.0935 4.38427C39.1429 4.29658 39.1919 4.20769 39.2458 4.12261C39.7686 3.28685 41.467 4.13684 42.4461 4.1007C43.4249 4.06335 43.7548 2.86077 44.3371 3.65522C44.478 3.0269 44.5837 2.53813 44.7234 1.99966C44.8509 1.50612 44.3029 1.10055 43.8853 1.38926C43.882 1.39147 43.88 1.39334 43.8767 1.39554C43.8181 1.3223 43.775 1.23958 43.7467 1.15012C43.7271 1.08807 43.6963 1.03176 43.6588 0.983803C43.5189 1.08371 43.3787 1.1824 43.2399 1.28197C43.2657 1.1126 43.3214 0.949176 43.4011 0.798529C43.2789 0.755958 43.1414 0.756556 43.0122 0.810674L42.7798 0.906437C42.7097 0.842879 42.6585 0.763686 42.6243 0.675893C42.5322 0.432896 42.2949 0.284759 42.038 0.309491C41.6233 0.349573 42.1708 0.257746 41.7573 0.161222C41.1239 0.0129615 40.4191 -0.128414 39.8557 0.200867C39.0126 0.692309 38.375 1.05329 36.8872 1.1784C36.1433 1.6788 35.8231 2.88278 35.5947 3.48742C35.413 3.96619 35.2773 4.91489 35.4703 5.39066C35.957 6.59321 35.5429 7.30402 36.1447 8.45249L36.1447 8.45249Z" fill="#142739"/>
<path d="M25.7866 60.8315C25.5305 60.8477 25.3889 60.5266 25.5827 60.3395L25.602 60.2621C25.5994 60.2559 25.5969 60.2497 25.5943 60.2436C25.3353 59.6203 24.4574 59.6246 24.2005 60.2488C23.9726 60.8028 23.6824 61.3577 23.6109 61.9434C23.5789 62.202 23.5933 62.4654 23.6501 62.7191C23.116 61.5418 22.8349 60.2563 22.8349 58.9634C22.8349 58.6386 22.8525 58.3138 22.8886 57.9898C22.9182 57.7247 22.959 57.4613 23.0119 57.2003C23.2978 55.7895 23.9168 54.4458 24.8097 53.3235C25.2389 53.0867 25.5969 52.7167 25.8131 52.2731C25.8908 52.1131 25.9516 51.941 25.9805 51.7656C25.9316 51.7721 25.7963 51.0214 25.8331 50.9754C25.765 50.8711 25.6432 50.8193 25.5689 50.7176C25.1991 50.2118 24.6897 50.3001 24.4237 50.9875C23.8556 51.2768 23.8501 51.7566 24.1987 52.2181C24.4205 52.5117 24.4509 52.909 24.6455 53.2233C24.6255 53.2491 24.6047 53.2742 24.5847 53.3C24.2175 53.7752 23.9 54.2859 23.6323 54.8224C23.708 54.2261 23.5963 53.5078 23.4059 53.0447C23.1891 52.5171 22.7829 52.0728 22.4251 51.6167C21.9954 51.0688 21.1142 51.3079 21.0384 52.0024C21.0377 52.0091 21.037 52.0158 21.0363 52.0226C21.0894 52.0528 21.1415 52.085 21.1924 52.1189C21.4824 52.3125 21.3822 52.7662 21.0385 52.8197L21.0307 52.8209C21.0499 53.014 21.0828 53.2055 21.1308 53.3938C20.6718 55.1847 21.6627 55.837 23.0776 55.8663C23.1088 55.8825 23.1392 55.8986 23.1704 55.914C23.0271 56.3212 22.9126 56.739 22.8277 57.1624C22.7516 57.5365 22.6988 57.9146 22.6691 58.2944C22.6323 58.7735 22.6355 59.2551 22.6756 59.7335L22.6731 59.7165C22.5715 59.1897 22.288 58.6976 21.8763 58.3566C21.2632 57.8484 20.3969 57.6612 19.7353 57.2527C19.4169 57.056 19.0089 57.3102 19.0644 57.6827L19.0671 57.7005C19.1656 57.7409 19.2617 57.7878 19.3546 57.8403C19.4078 57.8705 19.4598 57.9027 19.5107 57.9366C19.8007 58.1302 19.7005 58.5839 19.3568 58.6374L19.349 58.6386C19.3434 58.6394 19.3386 58.6402 19.333 58.641C19.502 59.0459 19.7374 59.4216 20.0321 59.7456C20.3191 61.309 21.5517 61.4573 22.8701 61.0021H22.8709C23.0151 61.6356 23.2257 62.2545 23.4964 62.8443H25.7306C25.7386 62.8193 25.7458 62.7934 25.753 62.7684C25.5464 62.7813 25.3382 62.7692 25.1348 62.7312C25.3006 62.526 25.4664 62.3191 25.6321 62.1139C25.6361 62.1099 25.6393 62.1058 25.6425 62.1018C25.7266 61.9967 25.8115 61.8925 25.8956 61.7875L25.8956 61.7873C25.9009 61.4649 25.8626 61.1435 25.7867 60.8316L25.7866 60.8315V60.8315Z" fill="#F5F5F5"/>
<path d="M66.8945 62.851C66.8945 62.9336 66.8288 62.9999 66.747 62.9999H19.2247C19.1429 62.9999 19.0771 62.9336 19.0771 62.851C19.0771 62.7685 19.1429 62.7021 19.2247 62.7021H66.747C66.8288 62.7021 66.8945 62.7685 66.8945 62.851V62.851Z" fill="#F5F5F5"/>
</svg>
