<svg width="201" height="203" viewBox="0 0 201 203" fill="none" xmlns="http://www.w3.org/2000/svg">
<path d="M142.743 27.8374H111.65C86.4602 27.8374 76.0328 37.7029 75.4671 61.9794C75.4542 62.5362 75.9042 63.0017 76.4611 63.0017H98.3245C129.417 63.0017 143.853 77.4376 143.853 108.53V130.394C143.853 130.951 144.319 131.401 144.875 131.388C169.152 130.822 179.017 120.394 179.017 95.2048V64.1121C179.017 38.2016 168.653 27.8374 142.743 27.8374Z" fill="url(#paint0_linear_2355_2454)"/>
<path d="M98.3264 72.2554H67.2337C41.3232 72.2554 30.959 82.6196 30.959 108.53V139.623C30.959 165.533 41.3232 175.898 67.2337 175.898H98.3264C124.237 175.898 134.601 165.533 134.601 139.623V108.53C134.601 82.6196 124.237 72.2554 98.3264 72.2554ZM107.136 114.082L79.6708 141.548C78.6344 142.584 77.3018 143.102 75.8953 143.102C74.4887 143.102 73.1561 142.584 72.1197 141.548L58.3501 127.778C56.2773 125.705 56.2773 122.374 58.3501 120.301C60.423 118.228 63.7543 118.228 65.8272 120.301L75.8212 130.295L99.5849 106.531C101.658 104.458 104.989 104.458 107.062 106.531C109.135 108.604 109.209 112.01 107.136 114.082Z" fill="url(#paint1_linear_2355_2454)"/>
<ellipse cx="45.6281" cy="17.069" rx="14.9406" ry="15.3444" fill="#CCF4ED"/>
<circle cx="7.67234" cy="87.7339" r="1.2114" fill="#CCF4ED"/>
<ellipse cx="6.46081" cy="149.919" rx="6.46081" ry="6.05701" fill="#CCF4ED"/>
<circle cx="54.9169" cy="196.356" r="5.65321" fill="#CCF4ED"/>
<circle cx="137.696" cy="176.57" r="1.2114" fill="#CCF4ED"/>
<circle cx="184.132" cy="175.358" r="4.038" fill="#CCF4ED"/>
<circle cx="184.133" cy="122.865" r="3.2304" fill="#CCF4ED"/>
<circle cx="190.594" cy="9.80059" r="9.69121" fill="#CCF4ED"/>
<circle cx="142.137" cy="19.4921" r="3.2304" fill="#CCF4ED"/>
<defs>
<linearGradient id="paint0_linear_2355_2454" x1="163.85" y1="116.238" x2="90.6164" y2="43.0046" gradientUnits="userSpaceOnUse">
<stop stop-color="#35DEBC"/>
<stop offset="1" stop-color="#00C8A6"/>
</linearGradient>
<linearGradient id="paint1_linear_2355_2454" x1="119.423" y1="160.719" x2="46.137" y2="87.4334" gradientUnits="userSpaceOnUse">
<stop stop-color="#35DEBC"/>
<stop offset="1" stop-color="#00C8A6"/>
</linearGradient>
</defs>
</svg>
