<svg width="109" height="71" viewBox="0 0 109 71" fill="none" xmlns="http://www.w3.org/2000/svg">
	<path d="M105.546 54.4923C105.005 48.9534 101.741 43.4244 96.5458 41.4905C98.4654 47.2273 98.3031 53.4612 96.0877 59.0894C95.2255 61.2568 94.0419 63.5774 94.7422 65.8029C95.178 67.1877 96.3039 68.268 97.5758 68.9583C98.8478 69.6486 100.27 69.999 101.675 70.3427L101.947 70.581C104.322 65.5527 106.086 60.0312 105.546 54.4923Z" fill="#F5F5F5" />
	<path d="M96.491 41.5935C99.4241 45.0713 101.27 49.5129 101.593 54.0662C101.663 55.0506 101.648 56.0554 101.409 57.0176C101.169 57.9538 100.684 58.8083 100.005 59.4925C99.3833 60.1431 98.673 60.7364 98.2201 61.5275C97.7427 62.3613 97.7002 63.3217 97.9887 64.2282C98.3417 65.3373 99.0703 66.2529 99.8138 67.1234C100.639 68.0898 101.512 69.0806 101.841 70.3419C101.881 70.4947 102.114 70.4236 102.075 70.2711C101.502 68.0767 99.43 66.7844 98.4772 64.7965C98.0326 63.8689 97.8636 62.8011 98.3278 61.8464C98.7336 61.0115 99.4657 60.3991 100.1 59.7457C100.767 59.0597 101.284 58.3013 101.564 57.3773C101.85 56.432 101.904 55.4257 101.86 54.4438C101.742 52.218 101.277 50.0245 100.482 47.9438C99.587 45.564 98.2935 43.3555 96.6573 41.4139C96.556 41.2937 96.3904 41.4742 96.491 41.5935L96.491 41.5935Z" fill="white" />
	<path d="M101.565 52.5806C102.324 52.4164 103 51.9865 103.473 51.3677C103.946 50.7489 104.184 49.9814 104.145 49.2024C104.143 49.1707 104.129 49.1409 104.106 49.1194C104.083 49.0978 104.052 49.0862 104.02 49.0869C103.989 49.0877 103.959 49.1008 103.936 49.1234C103.914 49.1461 103.902 49.1765 103.901 49.2083C103.938 49.9336 103.716 50.6485 103.275 51.2238C102.834 51.7991 102.202 52.1971 101.495 52.3457C101.341 52.3782 101.412 52.6129 101.565 52.5806Z" fill="white" />
	<path d="M100.362 59.2041C99.021 58.3513 98.0492 57.0221 97.6404 55.4815C97.6 55.3288 97.3663 55.3998 97.4066 55.5523C97.835 57.1547 98.8492 58.5359 100.247 59.4203C100.38 59.5045 100.495 59.2879 100.362 59.2041Z" fill="white" />
	<path d="M99.3543 45.7902C99.0738 45.9153 98.7668 45.9683 98.4608 45.9447C98.1549 45.921 97.8595 45.8214 97.6014 45.6548C97.4692 45.5689 97.3546 45.7856 97.4859 45.8709C97.772 46.0537 98.0983 46.1633 98.4363 46.1902C98.7743 46.217 99.1137 46.1604 99.4248 46.0251C99.4552 46.0148 99.4806 45.9933 99.4957 45.9649C99.5109 45.9365 99.5147 45.9034 99.5065 45.8723C99.497 45.8412 99.4757 45.8152 99.4472 45.7998C99.4187 45.7845 99.3853 45.781 99.3543 45.7902H99.3543Z" fill="white" />
	<path d="M80.3126 50.9331C80.3936 50.9891 80.4746 51.0451 80.5556 51.1031C81.6406 51.8612 82.6624 52.7066 83.611 53.6309C83.6855 53.7012 83.7599 53.7736 83.8322 53.8459C86.0941 56.0973 87.9202 58.7509 89.2178 61.672C89.733 62.8348 90.1595 64.0353 90.4934 65.2632C90.9545 66.9589 91.3202 68.8343 92.2836 70.2367C92.3825 70.3841 92.4904 70.5253 92.6066 70.6593L101.636 70.8958C101.657 70.886 101.678 70.8783 101.699 70.8685L102.059 70.8945C102.046 70.8299 102.031 70.7633 102.018 70.6987C102.011 70.6613 102.002 70.6238 101.994 70.5863C101.989 70.5613 101.983 70.5363 101.98 70.5134C101.978 70.5051 101.976 70.4968 101.974 70.4905C101.971 70.4676 101.965 70.4468 101.961 70.426C101.88 70.0532 101.797 69.6803 101.71 69.3073C101.71 69.3053 101.71 69.3053 101.708 69.3031C101.042 66.4631 100.133 63.6539 98.8296 61.0726C98.7904 60.9949 98.7513 60.9152 98.7079 60.8375C98.1137 59.6772 97.4262 58.5676 96.6521 57.5199C96.2264 56.9476 95.7721 56.3972 95.291 55.871C94.0453 54.5138 92.5948 53.3619 90.9928 52.4575C87.7989 50.655 84.0667 49.8987 80.5784 50.8573C80.4892 50.8818 80.4019 50.9065 80.3126 50.9331Z" fill="#F5F5F5" />
	<path d="M80.3298 51.0487C84.7561 52.0515 88.892 54.4813 91.8787 57.9217C92.5245 58.6655 93.115 59.4765 93.5011 60.3892C93.8706 61.2818 93.9954 62.2575 93.8626 63.2149C93.7566 64.1101 93.545 65.0135 93.6575 65.919C93.776 66.8735 94.3178 67.666 95.0914 68.2153C96.0379 68.8874 97.1684 69.1778 98.2838 69.4231C99.5222 69.6955 100.813 69.9588 101.831 70.767C101.955 70.8649 102.099 70.6668 101.975 70.569C100.203 69.1629 97.7742 69.3846 95.8221 68.3737C94.9112 67.9019 94.1362 67.1515 93.9346 66.1085C93.7583 65.1965 93.9757 64.2647 94.0909 63.3592C94.2117 62.4084 94.17 61.4903 93.8399 60.583C93.5021 59.655 92.9419 58.8191 92.3179 58.0619C90.8903 56.3557 89.2044 54.8855 87.3222 53.7053C85.1814 52.3464 82.825 51.3653 80.3549 50.8046C80.202 50.77 80.1779 51.0142 80.3298 51.0487H80.3298Z" fill="white" />
	<path d="M90.9672 56.7519C91.4748 56.1618 91.7571 55.4095 91.7636 54.6296C91.7701 53.8497 91.5004 53.0928 91.0026 52.4942C90.9015 52.3734 90.7099 52.5256 90.8112 52.6465C91.2757 53.2031 91.5268 53.9081 91.5193 54.6344C91.5118 55.3607 91.2461 56.0603 90.7701 56.6071C90.6668 56.726 90.8645 56.8702 90.9672 56.7519Z" fill="white" />
	<path d="M93.9766 62.7683C92.3947 62.8984 90.8221 62.4249 89.5723 61.442C89.4486 61.3446 89.3045 61.5426 89.4281 61.64C90.7305 62.6603 92.3681 63.1498 94.0139 63.0107C94.1708 62.9973 94.1326 62.755 93.9766 62.7683H93.9766Z" fill="white" />
	<path d="M85.1315 52.6679C84.9825 52.9373 84.7691 53.1654 84.5107 53.3316C84.2522 53.4977 83.9567 53.5968 83.6507 53.6199C83.4937 53.6313 83.5321 53.8736 83.688 53.8623C84.026 53.8352 84.3522 53.7254 84.6382 53.5424C84.9242 53.3595 85.1612 53.109 85.3286 52.8128C85.3467 52.7862 85.354 52.7536 85.3491 52.7218C85.3442 52.69 85.3274 52.6612 85.3022 52.6414C85.276 52.6223 85.2434 52.6144 85.2114 52.6194C85.1795 52.6243 85.1508 52.6418 85.1315 52.6679Z" fill="white" />
	<path d="M27.3187 4.85978C27.4535 4.45989 29.1441 3.10056 28.1081 2.87209L27.2586 4.01003L23.3527 0.0864258L22.9599 0.48105L27.3187 4.85978Z" fill="#00C8A6" />
	<path d="M27.3187 18.2016C27.4535 17.8017 29.1441 16.4424 28.1081 16.2139L27.2586 17.3518L23.3527 13.4282L22.9599 13.8228L27.3187 18.2016Z" fill="#00C8A6" />
	<path d="M27.3187 31.7343C27.4535 31.3344 29.1441 29.9751 28.1081 29.7466L27.2586 30.8846L23.3527 26.9609L22.9599 27.3556L27.3187 31.7343Z" fill="#00C8A6" />
	<path d="M30.9148 20.7936C30.2492 20.7936 29.7096 20.2515 29.7096 19.5828C29.7096 18.9141 30.2492 18.3721 30.9148 18.3721C31.5805 18.3721 32.1201 18.9141 32.1201 19.5828C32.1201 20.2515 31.5805 20.7936 30.9148 20.7936Z" fill="#142739" />
	<path d="M30.9148 7.59609C30.2492 7.59609 29.7096 7.05401 29.7096 6.38533C29.7096 5.71664 30.2492 5.17456 30.9148 5.17456C31.5805 5.17456 32.1201 5.71664 32.1201 6.38533C32.1201 7.05401 31.5805 7.59609 30.9148 7.59609Z" fill="#142739" />
	<path d="M0.000427246 3.60059H19.4053V3.84274H0.000427246V3.60059Z" fill="#142739" />
	<path d="M30.3123 34.862C29.6467 34.862 29.107 34.3199 29.107 33.6512C29.107 32.9825 29.6467 32.4404 30.3123 32.4404C30.978 32.4404 31.5176 32.9825 31.5176 33.6512C31.5176 34.3199 30.978 34.862 30.3123 34.862Z" fill="#142739" />
	<path d="M0.000427246 16.9424H19.4053V17.1845H0.000427246V16.9424Z" fill="#142739" />
	<path d="M0.000427246 30.4751H19.4053V30.7173H0.000427246V30.4751Z" fill="#142739" />
	<path d="M24.2744 33.5382H30.3008V27.3633H26.2029V27.6054H30.0597V33.296H24.5155V30.5113H24.2744V33.5382Z" fill="#142739" />
	<path d="M24.2744 19.9776H30.3008V13.8027H26.2029V14.0449H30.0597V19.7355H24.5155V16.9507H24.2744V19.9776Z" fill="#142739" />
	<path d="M24.2744 6.17491H30.3008V0H26.2029V0.242153H30.0597V5.93275H24.5155V3.14799H24.2744V6.17491Z" fill="#142739" />
	<path d="M63.6207 22.0084C63.6207 22.0084 65.2313 28.8397 63.2628 28.8397C61.2943 28.8397 56.6415 21.1096 56.6415 21.1096L58.2521 19.1321L61.1429 23.1639L61.2943 21.1096L63.6207 22.0084Z" fill="#EBD5D8" />
	<path d="M57.0708 21.4063C56.2055 21.4063 55.504 20.7016 55.504 19.8323C55.504 18.963 56.2055 18.2583 57.0708 18.2583C57.9362 18.2583 58.6377 18.963 58.6377 19.8323C58.6377 20.7016 57.9362 21.4063 57.0708 21.4063Z" fill="#EBD5D8" />
	<path d="M64.9868 68.5351L62.9013 68.535L61.909 60.4536L64.9873 60.4537L64.9868 68.5351Z" fill="#EBD5D8" />
	<path d="M65.0605 70.7208L58.6469 70.7205V70.639C58.6469 69.974 58.9099 69.3361 59.3781 68.8659C59.8462 68.3956 60.4812 68.1314 61.1432 68.1314H61.1434L62.3149 67.2385L64.5007 68.1315L65.0605 68.1315L65.0605 70.7208Z" fill="#142739" />
	<path d="M87.4209 65.9212L85.5548 66.8567L81.0745 60.0709L83.8288 58.6902L87.4209 65.9212Z" fill="#EBD5D8" />
	<path d="M88.458 67.8439L82.7193 70.7208L82.6831 70.6479C82.3875 70.0528 82.3393 69.3641 82.5491 68.7334C82.7589 68.1026 83.2096 67.5813 83.802 67.2843L83.8021 67.2842L84.4534 65.9598L86.8061 65.7782L87.3071 65.5271L88.458 67.8439Z" fill="#142739" />
	<path d="M40.3177 70.7288H109V71.0001H40.3177V70.7288Z" fill="#B5BCC2" />
	<path d="M78.4703 34.4012C78.4703 34.4012 79.3038 44.4685 79.4827 46.6258C79.6054 47.9781 79.9063 49.308 80.3775 50.5808C80.3775 50.5808 80.7354 51.2998 80.7354 52.0189L84.7917 59.4244C84.7917 59.4244 86.0312 60.3397 85.8523 61.0588C85.6733 61.7779 86.5996 62.2092 86.5996 62.2092L82.3279 63.0363C82.3279 63.0363 82.5069 62.4969 81.97 62.3172C81.4332 62.1374 81.0058 60.5782 81.0058 60.5782L75.0088 50.7605L70.7139 41.772C70.7139 41.772 68.2086 49.8617 67.6717 50.7605C67.6717 50.7605 65.7032 60.8277 65.3453 61.7265C64.9874 62.6254 64.8084 62.6254 64.9874 62.9849C65.1663 63.3445 65.1663 63.704 64.9874 63.8838C64.8084 64.0636 61.4083 63.8838 61.4083 63.8838L62.3031 51.1201L63.9137 35.8395L72.1456 33.3228L78.4703 34.4012Z" fill="#142739" />
	<path d="M70.4109 10.368C68.3354 10.368 66.6528 8.67779 66.6528 6.59281C66.6528 4.50784 68.3354 2.81763 70.4109 2.81763C72.4864 2.81763 74.1689 4.50784 74.1689 6.59281C74.1689 8.67779 72.4864 10.368 70.4109 10.368Z" fill="#EBD5D8" />
	<path d="M63.5561 15.885L68.0298 13.1622C68.0298 13.1622 68.1538 11.4714 69.4285 11.3918C70.0684 11.3518 71.0288 11.2908 72.4699 11.1974C72.7745 11.1777 72.98 12.8516 73.3291 12.8289L78.0514 14.0873L77.3356 26.3117C77.3356 26.3117 78.4093 31.1655 78.0514 32.0644C77.6935 32.9632 78.9462 33.3228 78.5883 33.5025C78.2304 33.6823 78.5883 34.9407 78.5883 34.9407C78.5883 34.9407 71.6091 38.5361 63.914 35.8396L64.6298 33.5025C64.5324 33.197 64.5141 32.8716 64.5768 32.5571C64.6394 32.2425 64.7808 31.9492 64.9877 31.7048C64.9877 31.7048 64.2719 30.6262 65.1667 29.7273C65.1667 29.7273 64.8088 28.1094 65.7036 27.3903L65.8825 24.8735L65.3456 23.6151L63.5561 15.885Z" fill="#E9EBED" />
	<path d="M73.6724 8.74948L73.7775 8.50437C73.791 8.47268 75.12 5.31653 73.942 3.36973C73.3967 2.46845 72.4051 1.95961 70.9949 1.85745C68.7884 1.69718 67.2782 2.22298 66.5052 3.41915C66.3755 3.62188 66.3027 3.85594 66.2943 4.09674C66.2858 4.33753 66.3421 4.57616 66.4573 4.78753C66.5724 4.99891 66.7421 5.17521 66.9485 5.29792C67.1549 5.42062 67.3904 5.48519 67.6303 5.48484H67.66L68.0654 4.95602L68.089 5.00745C68.2358 5.32646 68.5729 5.5011 68.9677 5.46285C69.0348 5.458 69.0943 5.51623 69.1421 5.64086C69.1582 5.69537 69.1886 5.74453 69.2301 5.78318C69.2716 5.82182 69.3227 5.84853 69.3781 5.86049C69.6698 5.91754 70.0856 5.5484 70.2718 5.36442C70.2789 5.40676 70.2951 5.44706 70.3191 5.4826C70.3431 5.51813 70.3745 5.54807 70.411 5.57039C70.6072 5.68408 70.9124 5.53557 71 5.48827C71.6981 5.63725 72.1499 5.59741 72.3435 5.36997C72.4747 6.3027 72.7564 7.98157 73.0941 8.07463C73.1294 8.08278 73.1664 8.07932 73.1996 8.06474C73.2328 8.05017 73.2604 8.02526 73.2785 7.99369C73.3598 7.88763 73.4325 7.83478 73.4778 7.84962C73.5877 7.88473 73.6526 8.2482 73.6619 8.48279L73.6724 8.74948Z" fill="#142739" />
	<path d="M65.5251 16.0648L63.74 15.7734C62.454 17.0146 61.578 18.6222 61.2302 20.3793C60.6934 23.2556 60.5144 23.7949 60.5144 23.7949L64.8093 24.8736L67.1357 20.3793L65.5251 16.0648Z" fill="#E9EBED" />
	<path d="M73.4456 19.806L74.5488 33.855L46.3955 36.0859L45.2923 22.0369L73.4456 19.806Z" fill="white" />
	<path d="M70.4381 20.8945C71.127 20.4002 72.0018 20.3645 72.3359 20.3716C72.234 20.6912 71.9172 21.5111 71.2282 22.0056C70.5376 22.5011 69.6639 22.5357 69.3303 22.5288C69.4322 22.2092 69.749 21.3891 70.4381 20.8945Z" fill="#00C8A6" />
	<path d="M67.7207 29.8341L72.2413 29.4758C72.3748 29.4652 72.5092 29.4812 72.6366 29.5228C72.7641 29.5643 72.8821 29.6307 72.984 29.7181C73.0859 29.8055 73.1697 29.9122 73.2305 30.0321C73.2914 30.152 73.3281 30.2828 73.3386 30.417C73.3492 30.5512 73.3333 30.6861 73.2919 30.8142C73.2505 30.9422 73.1845 31.0608 73.0975 31.1631C73.0105 31.2655 72.9042 31.3496 72.7849 31.4108C72.6655 31.4719 72.5353 31.5088 72.4017 31.5194L67.8811 31.8776C67.6114 31.899 67.3442 31.8118 67.1384 31.6353C66.9326 31.4588 66.805 31.2074 66.7838 30.9364C66.7625 30.6654 66.8492 30.3971 67.0249 30.1903C67.2006 29.9836 67.4509 29.8554 67.7207 29.8341Z" fill="#00C8A6" />
	<path d="M46.4024 20.6714L71.7481 18.6627C72.0429 18.6394 72.3394 18.6747 72.6206 18.7664C72.9018 18.8582 73.1623 19.0048 73.3872 19.1977C73.6121 19.3906 73.7969 19.6261 73.9312 19.8908C74.0654 20.1555 74.1465 20.4442 74.1697 20.7403L75.1444 33.1447C75.1913 33.743 74.9997 34.3354 74.6118 34.7918C74.2239 35.2482 73.6715 35.5312 73.076 35.5785L47.7303 37.5872C47.4355 37.6105 47.1391 37.5753 46.8578 37.4835C46.5766 37.3917 46.3161 37.2452 46.0912 37.0522C45.8663 36.8593 45.6815 36.6238 45.5473 36.3591C45.413 36.0944 45.332 35.8058 45.3088 35.5096L44.3824 23.7197L44.3638 23.4789L44.3343 23.104C44.3111 22.8079 44.3462 22.5101 44.4375 22.2275C44.5289 21.945 44.6748 21.6833 44.8668 21.4574C45.0589 21.2315 45.2933 21.0459 45.5568 20.911C45.8203 20.7761 46.1076 20.6947 46.4024 20.6714ZM47.1509 31.4639L47.3115 33.5075C47.3408 33.8685 47.5112 34.203 47.7855 34.4381C48.0597 34.6732 48.4154 34.7896 48.7749 34.762L52.1657 34.4936C52.525 34.4641 52.8581 34.2929 53.0921 34.0174C53.3261 33.7419 53.442 33.3846 53.4145 33.0235L53.2539 30.9799C53.2244 30.619 53.0539 30.2845 52.7797 30.0495C52.5055 29.8144 52.1499 29.6979 51.7905 29.7254L48.4008 29.9942C48.0415 30.0238 47.7085 30.1949 47.4743 30.4703C47.2401 30.7456 47.1239 31.1028 47.1509 31.4639ZM73.5624 30.3983C73.5361 30.0676 73.3803 29.7609 73.1291 29.5455C72.878 29.3301 72.5521 29.2235 72.2228 29.2492L67.7024 29.6076C67.5391 29.6203 67.3799 29.6652 67.2339 29.7397C67.0878 29.8142 66.9578 29.9169 66.8513 30.0419C66.7448 30.1668 66.6639 30.3117 66.6132 30.4681C66.5624 30.6246 66.5428 30.7895 66.5556 30.9535C66.5683 31.1176 66.6131 31.2775 66.6874 31.4241C66.7617 31.5707 66.864 31.7012 66.9885 31.8081C67.113 31.915 67.2573 31.9962 67.413 32.047C67.5688 32.0979 67.733 32.1174 67.8963 32.1045L67.8986 32.1051L72.4191 31.7466C72.5823 31.7337 72.7414 31.6885 72.8873 31.6137C73.0331 31.5389 73.1629 31.4359 73.2691 31.3107C73.3753 31.1854 73.4559 31.0404 73.5062 30.8838C73.5565 30.7273 73.5756 30.5623 73.5624 30.3983ZM72.5947 20.2906L72.6256 20.1636L72.4955 20.1516C72.4447 20.1461 71.2422 20.0377 70.3062 20.7094C69.3701 21.381 69.0831 22.5595 69.0706 22.6088L69.0409 22.7361L69.1706 22.7493C69.3548 22.763 69.5397 22.7618 69.7237 22.7456C70.3089 22.7112 70.8741 22.5194 71.3603 22.1904C72.2963 21.5187 72.5834 20.3402 72.5947 20.2906Z" fill="#00C8A6" />
	<path d="M50.9541 32.8193L52.4233 32.7028C52.5281 32.6947 52.6318 32.7287 52.7117 32.7973C52.7916 32.866 52.8411 32.9636 52.8494 33.0689C52.8576 33.1742 52.824 33.2784 52.7558 33.3588C52.6876 33.4391 52.5905 33.4891 52.4857 33.4975L51.0165 33.614C50.9117 33.6221 50.808 33.5881 50.7281 33.5195C50.6482 33.4508 50.5987 33.3532 50.5905 33.2479C50.5822 33.1426 50.6158 33.0384 50.684 32.958C50.7522 32.8777 50.8494 32.8277 50.9541 32.8193Z" fill="#00C8A6" />
	<path d="M48.2415 33.0341L49.7107 32.9177C49.8154 32.9096 49.9191 32.9436 49.9989 33.0123C50.0787 33.0809 50.1282 33.1785 50.1365 33.2838C50.1447 33.389 50.1111 33.4932 50.043 33.5735C49.9749 33.6539 49.8778 33.7038 49.7731 33.7124L48.3039 33.8288C48.1991 33.8368 48.0955 33.8028 48.0157 33.7342C47.9358 33.6656 47.8864 33.5679 47.8781 33.4627C47.8699 33.3575 47.9035 33.2533 47.9716 33.1729C48.0397 33.0926 48.1368 33.0427 48.2415 33.0341Z" fill="#00C8A6" />
	<path d="M50.8733 31.7975L52.3425 31.6811C52.4473 31.673 52.5509 31.7071 52.6308 31.7757C52.7106 31.8443 52.76 31.942 52.7683 32.0472C52.7766 32.1524 52.7429 32.2566 52.6748 32.337C52.6067 32.4173 52.5096 32.4673 52.4049 32.4758L50.9357 32.5922C50.8309 32.6004 50.7272 32.5664 50.6473 32.4977C50.5674 32.4291 50.5179 32.3314 50.5097 32.2262C50.5014 32.1209 50.5351 32.0166 50.6032 31.9363C50.6714 31.8559 50.7686 31.806 50.8733 31.7975Z" fill="#00C8A6" />
	<path d="M48.1611 32.0124L49.6303 31.896C49.7351 31.8878 49.8389 31.9218 49.9187 31.9905C49.9986 32.0591 50.0481 32.1568 50.0564 32.262C50.0647 32.3673 50.031 32.4715 49.9628 32.5519C49.8947 32.6323 49.7975 32.6822 49.6927 32.6907L48.2235 32.8071C48.1187 32.8152 48.015 32.7812 47.9351 32.7126C47.8553 32.644 47.8057 32.5463 47.7975 32.441C47.7892 32.3358 47.8229 32.2315 47.891 32.1511C47.9592 32.0708 48.0564 32.0209 48.1611 32.0124Z" fill="#00C8A6" />
	<path d="M50.793 30.7756L52.2622 30.6591C52.367 30.651 52.4707 30.685 52.5506 30.7536C52.6305 30.8223 52.68 30.9199 52.6882 31.0252C52.6965 31.1305 52.6628 31.2347 52.5947 31.3151C52.5265 31.3955 52.4293 31.4454 52.3246 31.4539L50.8554 31.5703C50.7506 31.5783 50.647 31.5443 50.5671 31.4757C50.4873 31.407 50.4379 31.3094 50.4296 31.2042C50.4213 31.099 50.4549 30.9948 50.5231 30.9144C50.5912 30.8341 50.6882 30.7841 50.793 30.7756Z" fill="#00C8A6" />
	<path d="M48.0813 30.9906L49.5505 30.8742C49.6553 30.8662 49.7589 30.9002 49.8388 30.9688C49.9186 31.0374 49.968 31.1351 49.9763 31.2403C49.9846 31.3455 49.951 31.4497 49.8828 31.5301C49.8147 31.6104 49.7176 31.6604 49.6129 31.6689L48.1437 31.7853C48.039 31.7934 47.9353 31.7594 47.8555 31.6907C47.7757 31.6221 47.7262 31.5245 47.718 31.4193C47.7097 31.314 47.7433 31.2098 47.8114 31.1295C47.8795 31.0491 47.9766 30.9992 48.0813 30.9906Z" fill="#00C8A6" />
	<path d="M74.5465 24.6543L74.5654 24.8958L44.813 27.2436L44.7941 27.0021L74.5465 24.6543Z" fill="white" />
	<path d="M44.3639 23.4788L44.3825 23.7197L45.418 23.6381L56.4502 22.7676L56.4303 22.5264L45.3993 23.3971L44.3639 23.4788Z" fill="#142739" />
	<path d="M80.736 20.9186C80.736 20.9186 82.3465 27.7499 80.378 27.7499C78.4095 27.7499 73.7567 20.0197 73.7567 20.0197L75.3673 18.0422L78.2582 22.0741L78.4096 20.0197L80.736 20.9186Z" fill="#EBD5D8" />
	<path d="M74.1861 20.3167C73.3207 20.3167 72.6192 19.612 72.6192 18.7427C72.6192 17.8734 73.3207 17.1687 74.1861 17.1687C75.0514 17.1687 75.7529 17.8734 75.7529 18.7427C75.7529 19.612 75.0514 20.3167 74.1861 20.3167Z" fill="#EBD5D8" />
	<path d="M76.7478 15.166L77.8215 14.0874C77.8215 14.0874 79.969 15.3458 80.148 16.6042C80.3269 17.8626 81.2217 21.8175 81.2217 21.8175L77.911 22.0872L76.8373 20.4693L76.7478 15.166Z" fill="#E9EBED" />
</svg>
