<svg width="108" height="87" viewBox="0 0 108 87" fill="none" xmlns="http://www.w3.org/2000/svg">
	<g clip-path="url(#clip0_457_1351)">
		<path d="M54.7332 13.1523H15.1841C12.6106 13.1523 10.5244 15.2468 10.5244 17.8304V57.0302C10.5244 59.6138 12.6106 61.7083 15.1841 61.7083H54.7332C57.3066 61.7083 59.3928 59.6138 59.3928 57.0302V17.8304C59.3928 15.2468 57.3066 13.1523 54.7332 13.1523Z" fill="#E9EBED" />
		<path d="M23.4899 14.1143C20.3056 14.1143 17.2517 15.3842 15 17.6448C12.7484 19.9053 11.4834 22.9713 11.4834 26.1682V57.0301C11.4834 57.5181 11.5791 58.0013 11.7652 58.4522C11.9512 58.903 12.2238 59.3126 12.5675 59.6577C12.9112 60.0028 13.3193 60.2765 13.7683 60.4632C14.2174 60.65 14.6987 60.7461 15.1848 60.7461H40.426C45.2023 60.7461 49.7831 58.8412 53.1604 55.4505C56.5378 52.0597 58.4352 47.4609 58.4352 42.6657V17.8303C58.4352 16.8447 58.0453 15.8995 57.3511 15.2027C56.657 14.5058 55.7155 14.1143 54.7338 14.1143H23.4899Z" fill="white" />
		<path d="M40.9909 44.2094H14.1606C14.0072 44.2094 13.86 44.1482 13.7515 44.0392C13.643 43.9303 13.582 43.7826 13.582 43.6285C13.582 43.4744 13.643 43.3267 13.7515 43.2177C13.86 43.1088 14.0072 43.0476 14.1606 43.0476H40.9909C41.1443 43.0476 41.2915 43.1088 41.4 43.2177C41.5085 43.3267 41.5695 43.4744 41.5695 43.6285C41.5695 43.7826 41.5085 43.9303 41.4 44.0392C41.2915 44.1482 41.1443 44.2094 40.9909 44.2094Z" fill="#E9EBED" />
		<path d="M40.9908 27.6405H0.578624C0.502557 27.6407 0.42721 27.6257 0.356896 27.5966C0.286581 27.5675 0.22268 27.5247 0.168846 27.4707C0.115012 27.4168 0.0723059 27.3527 0.043166 27.2822C0.014026 27.2116 -0.000976562 27.136 -0.000976562 27.0596C-0.000976562 26.9833 0.014026 26.9077 0.043166 26.8371C0.0723059 26.7666 0.115012 26.7025 0.168846 26.6485C0.22268 26.5946 0.286581 26.5518 0.356896 26.5227C0.42721 26.4936 0.502557 26.4786 0.578624 26.4788H40.9908C41.1441 26.479 41.291 26.5403 41.3993 26.6493C41.5076 26.7582 41.5684 26.9058 41.5684 27.0596C41.5684 27.2135 41.5076 27.3611 41.3993 27.47C41.291 27.5789 41.1441 27.6403 40.9908 27.6405V27.6405Z" fill="#E9EBED" />
		<path d="M40.9919 31.7886H0.578037C0.424639 31.7888 0.277618 31.8502 0.169243 31.9592C0.0608683 32.0682 0 32.2159 0 32.3699C0 32.5239 0.0608683 32.6716 0.169243 32.7806C0.277618 32.8896 0.424639 32.951 0.578037 32.9512H40.9919C41.1453 32.951 41.2923 32.8896 41.4007 32.7806C41.5091 32.6716 41.5699 32.5239 41.5699 32.3699C41.5699 32.2159 41.5091 32.0682 41.4007 31.9592C41.2923 31.8502 41.1453 31.7888 40.9919 31.7886V31.7886Z" fill="#E9EBED" />
		<path d="M40.9908 38.2616H0.578596C0.425143 38.2616 0.277974 38.2004 0.169466 38.0915C0.0609588 37.9825 0 37.8348 0 37.6807C0 37.5267 0.0609588 37.3789 0.169466 37.27C0.277974 37.1611 0.425143 37.0999 0.578596 37.0999H40.9908C41.1442 37.0999 41.2914 37.1611 41.3999 37.27C41.5084 37.3789 41.5694 37.5267 41.5694 37.6807C41.5694 37.8348 41.5084 37.9825 41.3999 38.0915C41.2914 38.2004 41.1442 38.2616 40.9908 38.2616V38.2616Z" fill="#E9EBED" />
		<path d="M75.0201 84.6707L73.1647 84.6705L72.2822 77.4861L75.0204 77.4863L75.0201 84.6707Z" fill="#EBD5D8" />
		<path d="M75.0862 86.6139L69.3809 86.6137V86.5412C69.3809 85.9499 69.6149 85.3829 70.0313 84.9648C70.4478 84.5467 71.0126 84.3118 71.6015 84.3118H71.6017L72.6438 83.5181L74.5882 84.3119L75.0863 84.3119L75.0862 86.6139Z" fill="#142739" />
		<path d="M93.688 84.6707L91.8329 84.6705L90.9502 77.4861L93.6886 77.4863L93.688 84.6707Z" fill="#EBD5D8" />
		<path d="M93.7542 86.6139L88.0488 86.6137V86.5412C88.0489 85.9499 88.2828 85.3829 88.6993 84.9648C89.1157 84.5467 89.6806 84.3118 90.2695 84.3118H90.2696L91.3118 83.5181L93.2562 84.3119L93.7542 84.3119L93.7542 86.6139Z" fill="#142739" />
		<path d="M76.5341 43.3957C76.5341 43.3957 75.3157 44.694 75.2642 45.5362C75.2128 46.3785 75.8477 44.8486 75.2128 46.3785C74.5778 47.9084 74.5778 46.8885 74.5778 47.9084C74.5778 48.9284 73.2324 49.9243 73.2324 49.9243L71.0137 59.0888L72.292 80.5467H75.0858C77.6821 72.601 78.89 66.4652 77.4986 63.7176L81.3785 55.0599C81.3785 55.0599 88.7098 78.0915 89.0093 78.3629C89.3088 78.6343 89.3088 78.2518 89.3088 78.6343C89.3088 79.0168 88.9278 78.6343 89.3088 79.0168L91.0867 80.8017L93.7535 80.5467C93.7535 80.5467 94.1104 63.8716 91.1381 60.9897C91.1381 60.9897 91.8245 52.0656 91.1381 52.0906C90.4517 52.1157 90.4517 53.2631 90.4517 52.1157C90.4517 50.9683 91.2651 50.6621 91.2651 50.6621L88.9793 42.6023L76.5341 43.3957Z" fill="#142739" />
		<path d="M90.93 25.6302L88.3479 36.484L88.9577 40.5211L89.6895 45.3576L87.1597 45.1932L83.2447 44.9378L75.9758 44.4655L75.3398 23.0467L78.6746 19.5483L79.2705 17.8498L84.0915 17.8201L85.2449 19.8596L88.2103 20.7062C88.5914 20.9491 88.9496 21.2266 89.28 21.5354C90.0118 22.2158 90.66 23.0799 90.9631 23.965C91.0545 24.2229 91.1125 24.4916 91.1356 24.7644L90.93 25.6302Z" fill="#F5F5F5" />
		<path d="M68.4892 53.1692C68.6835 53.0614 68.8521 52.9125 68.9834 52.7329C69.1148 52.5532 69.2056 52.3471 69.2498 52.1287C69.2939 51.9103 69.2903 51.6849 69.2392 51.4681C69.188 51.2512 69.0906 51.0481 68.9535 50.8728L72.631 44.1514L71.0293 42.6731L66.7196 50.6883C66.4429 50.9418 66.2683 51.2884 66.2291 51.6625C66.1899 52.0365 66.2887 52.4121 66.5068 52.7179C66.725 53.0237 67.0472 53.2385 67.4126 53.3217C67.778 53.4049 68.1611 53.3506 68.4892 53.1692V53.1692Z" fill="#F5F5F5" />
		<path d="M77.4586 21.7373L76.6014 37.1538L72.4716 46.842L69.7837 50.4206L70.0893 48.799L68.2365 47.8683L68.0625 47.7816L71.6195 33.9231L71.9472 28.5378C72.0037 27.611 72.2511 26.7061 72.6739 25.8803C73.0966 25.0545 73.6855 24.3258 74.4032 23.7402L76.4604 22.0624L77.4586 21.7373Z" fill="#F5F5F5" />
		<path d="M68.4892 53.1692C68.6835 53.0614 68.8521 52.9125 68.9834 52.7329C69.1148 52.5532 69.2056 52.3471 69.2498 52.1287C69.2939 51.9103 69.2903 51.6849 69.2392 51.4681C69.188 51.2512 69.0906 51.0481 68.9535 50.8728L72.631 44.1514L71.0293 42.6731L66.7196 50.6883C66.4429 50.9418 66.2683 51.2884 66.2291 51.6625C66.1899 52.0365 66.2887 52.4121 66.5068 52.7179C66.725 53.0237 67.0472 53.2385 67.4126 53.3217C67.778 53.4049 68.1611 53.3506 68.4892 53.1692V53.1692Z" fill="#EBD5D8" />
		<path d="M77.4586 21.7373L76.6014 37.1538L72.4716 46.842L69.7837 50.4206L70.0893 48.799L68.2365 47.8683L68.0625 47.7816L71.6195 33.9231L71.9472 28.5378C72.0037 27.611 72.2511 26.7061 72.6739 25.8803C73.0966 25.0545 73.6855 24.3258 74.4032 23.7402L76.4604 22.0624L77.4586 21.7373Z" fill="#F5F5F5" />
		<path d="M81.4383 22.2688H41.8891C39.3157 22.2688 37.2295 24.3632 37.2295 26.9469V47.4303C37.2295 50.0139 39.3157 52.1084 41.8891 52.1084H81.4383C84.0117 52.1084 86.0979 50.0139 86.0979 47.4303V26.9469C86.0979 24.3632 84.0117 22.2688 81.4383 22.2688Z" fill="white" />
		<path d="M81.4387 52.2834H41.8895C40.608 52.282 39.3793 51.7702 38.4731 50.8604C37.5669 49.9506 37.0571 48.7171 37.0557 47.4305V26.947C37.0571 25.6603 37.5669 24.4268 38.4731 23.517C39.3793 22.6072 40.608 22.0955 41.8895 22.094H81.4387C82.7202 22.0955 83.9489 22.6072 84.8551 23.517C85.7613 24.4268 86.271 25.6603 86.2724 26.947V47.4305C86.271 48.7171 85.7613 49.9506 84.8551 50.8604C83.9489 51.7702 82.7202 52.282 81.4387 52.2834V52.2834ZM41.8895 22.4438C40.6999 22.4438 39.559 22.9183 38.7179 23.7628C37.8767 24.6073 37.4041 25.7527 37.4041 26.947V34.6031C37.4041 39.1995 39.2228 43.6075 42.4601 46.8576C45.6974 50.1077 50.0881 51.9336 54.6664 51.9336H81.4387C82.6282 51.9336 83.7691 51.4592 84.6103 50.6147C85.4514 49.7702 85.924 48.6248 85.924 47.4305V26.947C85.924 26.3556 85.808 25.7701 85.5826 25.2237C85.3571 24.6774 85.0268 24.1809 84.6102 23.7628C84.1937 23.3446 83.6993 23.0129 83.1551 22.7866C82.6109 22.5603 82.0276 22.4438 81.4386 22.4438L41.8895 22.4438Z" fill="#142739" />
		<path d="M52.3431 44.0105H43.1088C42.772 44.0105 42.499 44.2846 42.499 44.6227C42.499 44.9608 42.772 45.2349 43.1088 45.2349H52.3431C52.6798 45.2349 52.9529 44.9608 52.9529 44.6227C52.9529 44.2846 52.6798 44.0105 52.3431 44.0105Z" fill="#00C8A6" />
		<path d="M80.2194 42.3489H73.7729C73.4361 42.3489 73.1631 42.623 73.1631 42.9611V46.2846C73.1631 46.6227 73.4361 46.8968 73.7729 46.8968H80.2194C80.5562 46.8968 80.8292 46.6227 80.8292 46.2846V42.9611C80.8292 42.623 80.5562 42.3489 80.2194 42.3489Z" fill="#00C8A6" />
		<path d="M45.6352 33.7778C47.3672 33.7778 48.7713 32.3682 48.7713 30.6293C48.7713 28.8904 47.3672 27.4807 45.6352 27.4807C43.9031 27.4807 42.499 28.8904 42.499 30.6293C42.499 32.3682 43.9031 33.7778 45.6352 33.7778Z" fill="#00C8A6" />
		<path d="M81.5043 16.9186C83.6792 16.9186 85.4422 15.1486 85.4422 12.9652C85.4422 10.7817 83.6792 9.01172 81.5043 9.01172C79.3295 9.01172 77.5664 10.7817 77.5664 12.9652C77.5664 15.1486 79.3295 16.9186 81.5043 16.9186Z" fill="#EBD5D8" />
		<path d="M84.7355 15.0087C84.7663 15.2449 84.3407 15.2699 84.2447 15.0521C84.1488 14.8342 84.2732 14.5873 84.3942 14.3825L84.6751 13.9069C84.7281 13.8173 84.7589 13.7164 84.765 13.6125C84.7712 13.5085 84.7525 13.4046 84.7106 13.3094C84.6686 13.2141 84.6046 13.1304 84.5239 13.065C84.4432 12.9996 84.348 12.9546 84.2465 12.9336C84.5035 12.3533 84.2246 11.6288 83.7124 11.2559C83.2003 10.883 82.4383 11.5808 81.8169 11.7004C81.1956 11.8201 80.6982 11.3426 80.1318 11.6257L80.4721 10.8382L78.5886 11.6529L79.0262 10.767C78.5508 10.793 78.3484 11.3742 78.2537 11.8426C78.1528 12.3416 77.888 12.9655 77.3476 12.8621C77.2195 12.8334 77.102 12.7689 77.0087 12.6762C76.9154 12.5834 76.8501 12.466 76.8203 12.3377C76.4028 10.7212 77.6151 8.95408 79.2222 8.67057C79.3941 8.19419 79.7134 7.78559 80.1333 7.5046C80.5533 7.22362 81.0518 7.08503 81.5559 7.10913C82.06 7.13323 82.5432 7.31875 82.9347 7.63852C83.3262 7.95829 83.6054 8.3955 83.7314 8.88612L84.2583 8.23845L84.361 9.15612C84.7397 9.11571 85.0974 9.3841 85.2814 9.71879C85.4654 10.0535 85.3784 10.4856 85.5551 10.8242C86.3469 12.342 86.085 14.0507 84.8623 15.2148" fill="#142739" />
		<path d="M98.5459 83.9682C98.6268 83.9719 98.707 83.9506 98.7755 83.907C98.844 83.8635 98.8975 83.7999 98.9288 83.7248C98.9601 83.6497 98.9676 83.5667 98.9504 83.4872C98.9331 83.4077 98.892 83.3354 98.8324 83.2802L98.8053 83.172C98.8089 83.1634 98.8125 83.1547 98.8161 83.1461C98.8977 82.9526 99.0344 82.7876 99.2091 82.6719C99.3837 82.5562 99.5885 82.4949 99.7978 82.4957C100.007 82.4965 100.211 82.5593 100.385 82.6763C100.559 82.7933 100.695 82.9593 100.775 83.1534C101.095 83.9279 101.503 84.7038 101.603 85.5228C101.648 85.8848 101.629 86.2518 101.548 86.6074C102.301 84.9597 102.691 83.1688 102.694 81.3562C102.694 80.9013 102.669 80.4468 102.618 79.9948C102.577 79.6242 102.519 79.2563 102.445 78.891C102.042 76.909 101.176 75.0512 99.9187 73.4703C99.3102 73.137 98.818 72.6244 98.5086 72.0016C98.3965 71.7778 98.3173 71.5388 98.2734 71.2921C98.3421 71.3012 98.5323 70.2516 98.4805 70.1872C98.5761 70.0415 98.7474 69.969 98.8519 69.8268C99.3715 69.1195 100.087 69.243 100.461 70.2041C101.259 70.6087 101.267 71.2796 100.777 71.9248C100.466 72.3353 100.423 72.8908 100.149 73.3302C100.178 73.3664 100.207 73.4014 100.235 73.4376C100.749 74.1015 101.197 74.8144 101.573 75.5661C101.482 74.724 101.591 73.8721 101.891 73.0806C102.196 72.3429 102.767 71.7216 103.27 71.0839C103.403 70.9126 103.583 70.7847 103.789 70.7164C103.994 70.6481 104.215 70.6424 104.423 70.7001C104.632 70.7579 104.819 70.8764 104.96 71.0407C105.102 71.205 105.191 71.4077 105.218 71.6232C105.219 71.6326 105.22 71.642 105.221 71.6514C105.147 71.6937 105.073 71.7386 105.002 71.7861C104.912 71.8463 104.842 71.9324 104.802 72.0331C104.762 72.1338 104.753 72.2443 104.776 72.3502C104.8 72.4562 104.854 72.5525 104.933 72.6267C105.012 72.7009 105.111 72.7494 105.218 72.7659L105.229 72.7676C105.203 73.0378 105.155 73.3056 105.088 73.5686C105.733 76.0727 104.341 76.9848 102.353 77.0258C102.309 77.0483 102.266 77.0709 102.222 77.0924C102.6 78.1665 102.837 79.2853 102.927 80.4207C102.978 81.0906 102.975 81.7635 102.918 82.4329L102.921 82.4091C103.065 81.6648 103.461 80.9932 104.041 80.5077C104.902 79.7971 106.12 79.5354 107.049 78.9642C107.148 78.9005 107.263 78.8665 107.38 78.8662C107.498 78.8659 107.613 78.8994 107.712 78.9626C107.811 79.0258 107.89 79.1161 107.94 79.2229C107.989 79.3297 108.008 79.4486 107.992 79.5654L107.988 79.5903C107.85 79.647 107.715 79.7123 107.584 79.7858C107.51 79.8281 107.437 79.873 107.365 79.9205C107.275 79.9807 107.206 80.0668 107.165 80.1675C107.125 80.2682 107.116 80.3787 107.139 80.4846C107.163 80.5906 107.218 80.6869 107.296 80.7611C107.375 80.8353 107.475 80.8838 107.581 80.9003L107.592 80.902C107.6 80.9031 107.607 80.9043 107.615 80.9054C107.378 81.473 107.046 81.9954 106.632 82.4498C106.229 84.6358 104.497 84.8432 102.644 84.2066H102.643C102.44 85.0935 102.145 85.9568 101.764 86.7825H98.6245C98.6133 86.7475 98.6032 86.7113 98.593 86.6763C98.8836 86.6947 99.1754 86.6772 99.4618 86.6244C99.2288 86.3374 98.9959 86.0482 98.763 85.7612C98.7578 85.7558 98.7529 85.7502 98.7483 85.7442C98.6302 85.5974 98.5109 85.4516 98.3927 85.3048L98.3926 85.3046C98.3863 84.8544 98.4378 84.4053 98.5458 83.9682L98.5459 83.9682Z" fill="#E9EBED" />
		<path d="M50.0146 86.7919C50.0146 86.8193 50.0199 86.8464 50.0303 86.8717C50.0407 86.8969 50.0559 86.9199 50.0752 86.9393C50.0945 86.9586 50.1174 86.9739 50.1425 86.9844C50.1677 86.9948 50.1947 87.0001 50.222 87.0001H107.769C107.824 87.0001 107.876 86.9781 107.915 86.9391C107.954 86.9 107.976 86.8471 107.976 86.7919C107.976 86.7367 107.954 86.6837 107.915 86.6447C107.876 86.6057 107.824 86.5837 107.769 86.5837H50.222C50.1947 86.5837 50.1677 86.589 50.1425 86.5994C50.1173 86.6098 50.0945 86.6252 50.0752 86.6445C50.0559 86.6639 50.0407 86.6869 50.0303 86.7121C50.0199 86.7374 50.0146 86.7645 50.0146 86.7919V86.7919Z" fill="#E9EBED" />
		<path d="M83.1809 52.2336C83.3712 52.119 83.5345 51.9642 83.6594 51.78C83.7842 51.5957 83.8678 51.3865 83.9042 51.1667C83.9406 50.9468 83.929 50.7217 83.8702 50.5068C83.8114 50.292 83.7068 50.0925 83.5637 49.9221L87.001 43.0738L85.3479 41.6536L81.3246 49.8174C81.057 50.0806 80.8949 50.4333 80.8689 50.8085C80.843 51.1837 80.955 51.5555 81.1838 51.8533C81.4126 52.1511 81.7423 52.3543 82.1104 52.4244C82.4785 52.4945 82.8594 52.4266 83.1809 52.2336V52.2336Z" fill="#EBD5D8" />
		<path d="M90.9634 23.965L91.1359 24.7644L90.723 35.9382L88.958 40.5211L87.1599 45.1932L86.9386 45.7687L84.3792 49.4403L84.6266 47.8083L82.7414 46.9442L82.5654 46.8655L83.2449 44.9378L84.8078 40.5089L85.4838 38.5918L85.6302 32.8877L85.7661 27.4949C85.7897 26.5668 86.0049 25.6537 86.3981 24.8134C86.7913 23.973 87.3538 23.2238 88.0502 22.6129L89.2803 21.5354C90.0121 22.2158 90.6602 23.0799 90.9634 23.965Z" fill="#F5F5F5" />
		<path d="M49.8428 51.8791L41.6753 51.7042C40.6593 51.7026 39.6853 51.2967 38.967 50.5753C38.2487 49.8539 37.8447 48.8759 37.8436 47.8559L37.4951 39.2827C38.498 46.2722 42.3519 50.7058 49.8428 51.8791Z" fill="#00C8A6" />
	</g>
	<defs>
		<clipPath id="clip0_457_1351">
			<rect width="108" height="87" rx="10" fill="white" />
		</clipPath>
	</defs>
</svg>
